PathFileType	4	(X/Y/Z)	C:\Users\mayra\OneDrive - Universitat Pompeu Fabra\PhD_Mayra\OpenSim\aurel\ID_04_Walking_14.trc
DataRate	CameraRate	NumFrames	NumMarkers	Units	OrigDataRate	OrigDataStartFrame	OrigNumFrames
250.00	250.00	16	18	mm	250.00	407	1846
Frame#	Time	r.should			l.should			c7			r.asis			l.asis			sacrum			r.bar1			l.bar1			r.knee1			l.knee1			r.bar2			r.mall			l.bar2			l.mall			r.met			r.heel			l.heel			l.met			
		X1	Y1	Z1	X2	Y2	Z2	X3	Y3	Z3	X4	Y4	Z4	X5	Y5	Z5	X6	Y6	Z6	X7	Y7	Z7	X8	Y8	Z8	X9	Y9	Z9	X10	Y10	Z10	X11	Y11	Z11	X12	Y12	Z12	X13	Y13	Z13	X14	Y14	Z14	X15	Y15	Z15	X16	Y16	Z16	X17	Y17	Z17	X18	Y18	Z18	

1357	5.428000	938.609421	1232.810378	397.904068	950.946927	1250.069499	121.390566	858.215213	1305.961609	249.109417	1033.207417	861.344755	372.657359	1039.306641	853.650331	137.290254	792.179167	903.705239	240.253747	935.350537	777.607441	456.905901	939.004719	758.054793	55.187121	1091.933131	472.416461	399.596721	897.834480	459.252000	132.154197	1088.180065	407.460660	398.825586	1130.165219	74.599124	367.710054	871.258974	387.208819	137.333810	797.238708	71.468398	173.452377	1277.699232	77.720895	377.668262	1093.815207	57.003096	317.626029	736.197948	65.016821	209.415138	925.334156	43.330912	205.302685	
1358	5.432000	942.948639	1232.042551	398.295045	955.325961	1249.494195	121.838927	862.478793	1305.255651	249.532402	1037.890315	860.672534	372.717112	1043.385983	853.104353	137.227133	796.555042	903.098583	240.887463	941.692173	778.122902	456.821620	942.349613	757.660031	55.300638	1094.794989	470.634639	399.836361	900.156736	458.934218	132.280529	1092.371702	406.166852	399.141431	1142.308831	74.558198	368.494421	873.160422	386.976331	137.499988	797.442615	71.632743	173.566222	1289.964914	80.089107	378.072083	1107.236266	56.219079	317.699045	736.387014	65.404683	209.590152	925.335824	43.320902	205.319047	
1359	5.436000	947.271645	1231.292486	398.712307	959.661841	1248.906851	122.311354	866.723537	1304.544330	249.971777	1042.578459	860.017598	372.795314	1047.442198	852.541447	137.173519	800.941110	902.484238	241.515905	946.610451	777.791023	457.000971	945.746422	757.244229	55.413987	1097.280622	468.443155	399.900973	902.582407	458.576858	132.426426	1096.483827	404.908836	399.481297	1154.049635	74.688748	369.282186	875.158370	386.724889	137.665629	797.630429	71.766920	173.714176	1301.791668	82.527377	378.404140	1119.433999	55.577628	318.349540	736.586452	65.811254	209.758580	925.328374	43.378778	205.312952	
1360	5.440000	951.622605	1230.543852	399.177909	963.970661	1248.311281	122.797176	871.001065	1303.847075	250.439405	1047.288179	859.404743	372.901767	1051.536322	851.971030	137.114480	805.355072	901.839197	242.125690	951.269388	777.243614	457.274914	949.176908	756.768823	55.565316	1100.239396	466.750801	400.218934	905.063391	458.213449	132.581636	1100.523829	403.699875	399.826318	1165.350437	74.925788	370.078743	877.209663	386.480629	137.826905	797.869325	71.891516	173.806086	1313.122034	85.038215	378.669083	1130.853891	55.049933	319.293886	736.791372	66.224009	209.912747	925.529897	43.433394	205.181986	
1361	5.444000	956.005991	1229.778767	399.667174	968.265057	1247.712612	123.281792	875.264168	1303.157091	250.928968	1052.018762	858.831108	373.020917	1055.683136	851.455808	137.024879	809.798002	901.160657	242.739677	955.899060	776.646852	457.527459	952.612281	756.280482	55.755477	1103.284121	465.156525	400.552154	907.550395	457.844168	132.741600	1104.492188	402.574807	400.138676	1176.155448	75.242966	370.903224	879.317701	386.231959	138.010323	798.078179	72.032526	173.924416	1323.959589	87.627634	378.858745	1141.789436	54.669321	320.310086	736.985326	66.665620	210.070312	925.702155	43.436591	205.076844	
1362	5.448000	960.356355	1229.014397	400.160640	972.594500	1247.110963	123.799823	879.510522	1302.437305	251.451552	1056.742430	858.266890	373.155534	1059.821844	850.984693	136.928469	814.241886	900.462270	243.379712	960.587740	776.062310	457.793057	956.113040	755.772889	55.990573	1106.333017	463.566720	400.873363	910.112619	457.441628	132.906020	1108.445406	401.546776	400.419474	1186.511278	75.658098	371.714294	881.492555	385.969073	138.191879	798.309982	72.216764	174.060464	1334.236383	90.194672	378.956527	1152.123809	54.338209	321.310401	737.190604	67.126371	210.216925	925.860524	43.416556	204.964295	
1363	5.452000	964.691877	1228.282809	400.689214	976.955056	1246.516347	124.345519	883.783579	1301.724434	251.999468	1061.522841	857.749581	373.311341	1063.978314	850.494802	136.834010	818.663478	899.786711	244.032428	965.312004	775.439501	458.084673	959.598899	755.245984	56.252785	1109.338284	462.056667	401.198536	912.741780	457.028776	133.083552	1112.371922	400.619596	400.691241	1196.344256	76.127678	372.516662	883.675694	385.678709	138.374284	798.532188	72.407104	174.192458	1343.947053	92.687368	378.989667	1161.874533	54.019220	322.355539	737.424374	67.593180	210.344076	926.025867	43.403272	204.818115	
1364	5.456000	969.058275	1227.538586	401.221991	981.296182	1245.918036	124.923155	888.071597	1301.031113	252.541065	1066.349626	857.274890	373.498231	1068.176389	850.013196	136.735350	823.101938	899.112821	244.689375	970.260441	774.864435	458.375454	963.187575	754.668236	56.522802	1112.391591	460.654020	401.489824	915.425181	456.601322	133.273780	1116.355419	399.797887	400.892764	1205.579281	76.594703	373.259515	885.892987	385.391474	138.575315	798.757195	72.634168	174.309924	1353.073955	95.040828	378.963113	1171.068668	53.725183	323.415637	737.668097	68.098970	210.473493	926.066458	43.466412	204.729468	
1365	5.460000	973.439097	1226.778388	401.794940	985.600293	1245.340228	125.483871	892.364562	1300.343990	253.103614	1071.185231	856.808960	373.683989	1072.342873	849.568367	136.671752	827.591598	898.422480	245.323867	975.186706	774.272203	458.728135	966.838002	754.039884	56.853004	1115.512848	459.404111	401.722223	918.158531	456.159890	133.462921	1120.474100	399.115443	401.033640	1215.566754	77.485792	375.367254	888.204873	385.104477	138.764650	798.930585	72.639272	174.273789	1361.605167	97.174793	378.852040	1179.621220	53.481080	324.409455	737.906814	68.639055	210.615143	925.929070	43.611672	204.766333	
1366	5.464000	977.840245	1226.062775	402.396023	989.867628	1244.773507	126.071900	896.682262	1299.639344	253.721625	1076.020002	856.342077	373.871952	1075.641155	848.714471	136.935607	832.106471	897.742927	245.957628	980.044544	773.665309	459.101111	970.543921	753.415644	57.219900	1118.801117	458.384782	401.920646	920.948982	455.738306	133.656040	1124.824762	398.547173	401.138246	1226.657152	78.907952	379.204571	890.551150	384.812385	138.953716	799.121976	72.618634	174.202248	1369.548678	99.015623	378.664136	1187.697530	53.227358	325.322807	738.147080	69.224969	210.740060	925.953150	43.634664	204.791009	
1367	5.468000	982.218623	1225.345612	403.025806	994.148135	1244.196296	126.676619	900.995135	1298.967123	254.351705	1080.849528	855.898857	374.094963	1077.874780	847.380877	137.620673	836.623728	897.102237	246.608794	984.982789	773.111999	459.503770	974.384308	752.751589	57.621632	1122.388124	457.685709	402.073562	923.762202	455.312908	133.858949	1129.480124	398.155481	401.233464	1234.929562	79.459235	380.578607	892.951787	384.537250	139.173552	799.483180	73.386684	174.502373	1376.916289	100.510910	378.405601	1195.132971	52.950330	326.149195	738.392353	69.852248	210.853368	925.994694	43.621998	204.807580	
1368	5.472000	986.617208	1224.616051	403.646559	998.461127	1243.634701	127.295226	905.316353	1298.310757	254.998088	1085.678577	855.468333	374.339342	1081.686974	846.750617	137.721151	841.145396	896.501303	247.274861	989.919126	772.560000	459.882975	978.287876	752.063990	58.039840	1126.576185	457.422644	402.174562	926.650226	454.880744	134.072945	1134.477496	397.894144	401.326746	1242.067933	79.688042	381.265134	895.446181	384.285986	139.382601	799.803734	73.795289	174.653351	1383.696795	101.566717	378.112674	1201.938629	52.609239	326.870441	738.655567	70.517801	210.958734	926.056504	43.601319	204.819828	
1369	5.476000	991.046786	1223.928213	404.283911	1002.735615	1243.082285	127.946898	909.614444	1297.673702	255.669296	1090.512037	855.063200	374.599397	1085.870504	846.290588	137.712851	845.656693	895.936310	247.961968	994.934380	772.048354	460.313112	982.213855	751.414061	58.450833	1131.365061	457.516521	402.202696	929.612935	454.441398	134.301051	1139.689088	397.742271	401.424408	1248.304486	79.676911	381.671548	897.915304	384.030521	139.596283	800.140619	74.161440	174.769804	1389.882088	102.166876	377.755642	1208.070993	52.247927	327.643931	738.960505	71.209028	211.065799	926.143527	43.573607	204.837114	
1370	5.480000	995.452583	1223.234177	404.966384	1006.994128	1242.565989	128.586307	913.941503	1297.041178	256.379008	1095.363855	854.659438	374.880761	1091.056585	846.294463	137.379929	850.164175	895.404875	248.611376	999.882936	771.565557	460.751802	986.196339	750.744939	58.833200	1136.574745	457.758099	402.167916	932.617366	454.020172	134.535596	1145.028114	397.717953	401.538432	1253.941536	79.467796	381.917328	900.469363	383.758008	139.791429	800.464988	74.509583	174.860269	1395.473003	102.339782	377.345949	1213.296413	51.766951	328.301996	739.286184	71.938261	211.185098	926.219642	43.547831	204.858363	
1371	5.484000	999.877751	1222.556949	405.651301	1011.289120	1242.089748	129.247308	918.293238	1296.421289	257.109821	1100.251555	854.254603	375.195354	1096.516848	846.449971	136.979923	854.752123	894.901514	249.226257	1004.840970	771.128893	461.218208	990.218580	750.069916	59.198927	1142.090678	458.036184	402.073801	935.681045	453.624874	134.766713	1150.478721	397.724658	401.585937	1258.955598	79.057686	382.042587	903.048456	383.526683	139.969289	800.767243	74.874833	174.963474	1400.436163	102.076709	376.865119	1218.059301	51.120885	328.753054	739.625931	72.752781	211.325616	926.285744	43.527655	204.879358	
1372	5.488000	1004.362822	1221.905708	406.365037	1015.614033	1241.629839	129.952818	922.671914	1295.826197	257.839561	1105.132461	853.838325	375.513285	1100.242615	845.801234	137.234941	859.385490	894.449949	249.826327	1009.815335	770.678818	461.679876	994.340301	749.338984	59.520904	1147.758603	458.238959	401.942253	938.801110	453.233778	134.984657	1155.950308	397.735000	401.630282	1263.348341	78.461982	382.078350	905.715883	383.322507	140.183792	801.092505	75.332686	175.088644	1404.823780	101.360656	376.315922	1222.059488	50.426327	329.150230	739.998341	73.616914	211.464226	926.374435	43.503657	204.901427	
